<mxfile host="a6498a06-1c39-4c75-a0d3-ecdba3e35254" modified="2020-09-01T10:29:29.767Z" agent="5.0 (Macintosh; Intel Mac OS X 10_15_6) AppleWebKit/537.36 (KHTML, like Gecko) Code/1.48.2 Chrome/78.0.3904.130 Electron/7.3.2 Safari/537.36" etag="VkbaZkFyTQ3KjDkLWeo8" version="13.1.3" pages="3">
    <diagram id="6hGFLwfOUW9BJ-s0fimq" name="分布式架构">
        <mxGraphModel dx="1138" dy="680" grid="0" gridSize="10" guides="1" tooltips="1" connect="1" arrows="1" fold="1" page="1" pageScale="1" pageWidth="827" pageHeight="1169" math="0" shadow="0">
            <root>
                <mxCell id="0"/>
                <mxCell id="1" parent="0"/>
                <mxCell id="8" value="" style="rounded=1;whiteSpace=wrap;html=1;" parent="1" vertex="1">
                    <mxGeometry x="307" y="137" width="230" height="130" as="geometry"/>
                </mxCell>
                <mxCell id="9" value="&lt;span&gt;primary shard2&lt;/span&gt;" style="rounded=0;whiteSpace=wrap;html=1;" parent="1" vertex="1">
                    <mxGeometry x="327" y="173" width="190" height="40" as="geometry"/>
                </mxCell>
                <mxCell id="10" value="&lt;span&gt;replica shard3&lt;/span&gt;" style="rounded=0;whiteSpace=wrap;html=1;" parent="1" vertex="1">
                    <mxGeometry x="327" y="217" width="190" height="40" as="geometry"/>
                </mxCell>
                <mxCell id="11" value="" style="rounded=1;whiteSpace=wrap;html=1;" parent="1" vertex="1">
                    <mxGeometry x="567" y="137" width="230" height="130" as="geometry"/>
                </mxCell>
                <mxCell id="12" value="&lt;span&gt;primary shard3&lt;/span&gt;" style="rounded=0;whiteSpace=wrap;html=1;" parent="1" vertex="1">
                    <mxGeometry x="587" y="173" width="190" height="40" as="geometry"/>
                </mxCell>
                <mxCell id="13" value="&lt;span&gt;replica shard1&lt;/span&gt;" style="rounded=0;whiteSpace=wrap;html=1;" parent="1" vertex="1">
                    <mxGeometry x="587" y="217" width="190" height="40" as="geometry"/>
                </mxCell>
                <mxCell id="14" value="" style="rounded=1;whiteSpace=wrap;html=1;" parent="1" vertex="1">
                    <mxGeometry x="47" y="137" width="230" height="130" as="geometry"/>
                </mxCell>
                <mxCell id="15" value="primary shard1" style="rounded=0;whiteSpace=wrap;html=1;" parent="1" vertex="1">
                    <mxGeometry x="67" y="173" width="190" height="40" as="geometry"/>
                </mxCell>
                <mxCell id="16" value="replica shard2" style="rounded=0;whiteSpace=wrap;html=1;" parent="1" vertex="1">
                    <mxGeometry x="67" y="217" width="190" height="40" as="geometry"/>
                </mxCell>
                <mxCell id="17" value="&lt;font style=&quot;font-size: 14px&quot;&gt;master node&lt;/font&gt;" style="text;html=1;strokeColor=none;fillColor=none;align=center;verticalAlign=middle;whiteSpace=wrap;rounded=0;" parent="1" vertex="1">
                    <mxGeometry x="364.5" y="147" width="115" height="20" as="geometry"/>
                </mxCell>
                <mxCell id="18" value="node" style="text;html=1;strokeColor=none;fillColor=none;align=center;verticalAlign=middle;whiteSpace=wrap;rounded=0;" parent="1" vertex="1">
                    <mxGeometry x="142" y="147" width="40" height="20" as="geometry"/>
                </mxCell>
                <mxCell id="19" value="node" style="text;html=1;strokeColor=none;fillColor=none;align=center;verticalAlign=middle;whiteSpace=wrap;rounded=0;" parent="1" vertex="1">
                    <mxGeometry x="662" y="147" width="40" height="20" as="geometry"/>
                </mxCell>
                <mxCell id="20" value="" style="shape=curlyBracket;whiteSpace=wrap;html=1;rounded=1;rotation=90;" parent="1" vertex="1">
                    <mxGeometry x="407" y="-153" width="20" height="520" as="geometry"/>
                </mxCell>
                <mxCell id="21" value="Cluster" style="text;html=1;strokeColor=none;fillColor=none;align=center;verticalAlign=middle;whiteSpace=wrap;rounded=0;" parent="1" vertex="1">
                    <mxGeometry x="397" y="67" width="40" height="20" as="geometry"/>
                </mxCell>
            </root>
        </mxGraphModel>
    </diagram>
    <diagram id="y4hhj1z4xhkbOsRUI5GV" name="ES写入流程">
        <mxGraphModel dx="1538" dy="680" grid="0" gridSize="10" guides="1" tooltips="1" connect="1" arrows="1" fold="1" page="0" pageScale="1" pageWidth="850" pageHeight="1100" math="0" shadow="0">
            <root>
                <mxCell id="iXEABd4B_S0YfIm2wUHQ-0"/>
                <mxCell id="iXEABd4B_S0YfIm2wUHQ-1" parent="iXEABd4B_S0YfIm2wUHQ-0"/>
                <mxCell id="gRTpquslr0_nQvBMVViK-1" value="Commit point" style="rounded=0;whiteSpace=wrap;html=1;" parent="iXEABd4B_S0YfIm2wUHQ-1" vertex="1">
                    <mxGeometry x="479" y="635" width="95" height="34" as="geometry"/>
                </mxCell>
                <mxCell id="Dfly9wBQRtj-8VsdVsod-3" style="edgeStyle=orthogonalEdgeStyle;rounded=0;orthogonalLoop=1;jettySize=auto;html=1;exitX=0.25;exitY=1;exitDx=0;exitDy=0;entryX=0.5;entryY=0;entryDx=0;entryDy=0;" parent="iXEABd4B_S0YfIm2wUHQ-1" source="iXEABd4B_S0YfIm2wUHQ-31" target="iXEABd4B_S0YfIm2wUHQ-37" edge="1">
                    <mxGeometry relative="1" as="geometry"/>
                </mxCell>
                <mxCell id="Dfly9wBQRtj-8VsdVsod-4" style="edgeStyle=orthogonalEdgeStyle;rounded=0;orthogonalLoop=1;jettySize=auto;html=1;exitX=0.75;exitY=1;exitDx=0;exitDy=0;" parent="iXEABd4B_S0YfIm2wUHQ-1" source="iXEABd4B_S0YfIm2wUHQ-31" target="iXEABd4B_S0YfIm2wUHQ-27" edge="1">
                    <mxGeometry relative="1" as="geometry"/>
                </mxCell>
                <mxCell id="iXEABd4B_S0YfIm2wUHQ-31" value="OS Buffer" style="rounded=0;whiteSpace=wrap;html=1;" parent="iXEABd4B_S0YfIm2wUHQ-1" vertex="1">
                    <mxGeometry x="25" y="517" width="600" height="32" as="geometry"/>
                </mxCell>
                <mxCell id="gRTpquslr0_nQvBMVViK-5" style="edgeStyle=orthogonalEdgeStyle;rounded=0;orthogonalLoop=1;jettySize=auto;html=1;exitX=0;exitY=0.75;exitDx=0;exitDy=0;entryX=1;entryY=0.75;entryDx=0;entryDy=0;" parent="iXEABd4B_S0YfIm2wUHQ-1" source="iXEABd4B_S0YfIm2wUHQ-2" target="iXEABd4B_S0YfIm2wUHQ-8" edge="1">
                    <mxGeometry relative="1" as="geometry"/>
                </mxCell>
                <mxCell id="iXEABd4B_S0YfIm2wUHQ-2" value="" style="rounded=1;whiteSpace=wrap;html=1;" parent="iXEABd4B_S0YfIm2wUHQ-1" vertex="1">
                    <mxGeometry x="390" y="230" width="230" height="130" as="geometry"/>
                </mxCell>
                <mxCell id="Dfly9wBQRtj-8VsdVsod-0" style="edgeStyle=orthogonalEdgeStyle;rounded=0;orthogonalLoop=1;jettySize=auto;html=1;exitX=1;exitY=0.5;exitDx=0;exitDy=0;entryX=0.776;entryY=-0.029;entryDx=0;entryDy=0;entryPerimeter=0;" parent="iXEABd4B_S0YfIm2wUHQ-1" source="iXEABd4B_S0YfIm2wUHQ-3" target="iXEABd4B_S0YfIm2wUHQ-31" edge="1">
                    <mxGeometry relative="1" as="geometry">
                        <Array as="points">
                            <mxPoint x="636" y="286"/>
                            <mxPoint x="636" y="412"/>
                            <mxPoint x="491" y="412"/>
                        </Array>
                    </mxGeometry>
                </mxCell>
                <mxCell id="Dfly9wBQRtj-8VsdVsod-16" style="edgeStyle=orthogonalEdgeStyle;rounded=0;orthogonalLoop=1;jettySize=auto;html=1;exitX=0;exitY=0.5;exitDx=0;exitDy=0;entryX=0;entryY=0.5;entryDx=0;entryDy=0;" parent="iXEABd4B_S0YfIm2wUHQ-1" source="iXEABd4B_S0YfIm2wUHQ-3" target="iXEABd4B_S0YfIm2wUHQ-26" edge="1">
                    <mxGeometry relative="1" as="geometry"/>
                </mxCell>
                <mxCell id="iXEABd4B_S0YfIm2wUHQ-3" value="&lt;span&gt;primary shard2&lt;/span&gt;" style="rounded=0;whiteSpace=wrap;html=1;" parent="iXEABd4B_S0YfIm2wUHQ-1" vertex="1">
                    <mxGeometry x="410" y="266" width="190" height="40" as="geometry"/>
                </mxCell>
                <mxCell id="iXEABd4B_S0YfIm2wUHQ-4" value="&lt;span&gt;replica shard3&lt;/span&gt;" style="rounded=0;whiteSpace=wrap;html=1;" parent="iXEABd4B_S0YfIm2wUHQ-1" vertex="1">
                    <mxGeometry x="410" y="310" width="190" height="40" as="geometry"/>
                </mxCell>
                <mxCell id="iXEABd4B_S0YfIm2wUHQ-21" style="edgeStyle=orthogonalEdgeStyle;rounded=0;orthogonalLoop=1;jettySize=auto;html=1;exitX=1;exitY=0.25;exitDx=0;exitDy=0;entryX=0;entryY=0.25;entryDx=0;entryDy=0;" parent="iXEABd4B_S0YfIm2wUHQ-1" source="iXEABd4B_S0YfIm2wUHQ-8" target="iXEABd4B_S0YfIm2wUHQ-2" edge="1">
                    <mxGeometry relative="1" as="geometry"/>
                </mxCell>
                <mxCell id="gRTpquslr0_nQvBMVViK-7" style="edgeStyle=orthogonalEdgeStyle;rounded=0;orthogonalLoop=1;jettySize=auto;html=1;exitX=0;exitY=0.5;exitDx=0;exitDy=0;entryX=0;entryY=0.5;entryDx=0;entryDy=0;" parent="iXEABd4B_S0YfIm2wUHQ-1" source="iXEABd4B_S0YfIm2wUHQ-8" target="iXEABd4B_S0YfIm2wUHQ-16" edge="1">
                    <mxGeometry relative="1" as="geometry">
                        <Array as="points">
                            <mxPoint x="-33" y="295"/>
                            <mxPoint x="-33" y="120"/>
                        </Array>
                    </mxGeometry>
                </mxCell>
                <mxCell id="iXEABd4B_S0YfIm2wUHQ-8" value="" style="rounded=1;whiteSpace=wrap;html=1;" parent="iXEABd4B_S0YfIm2wUHQ-1" vertex="1">
                    <mxGeometry x="40" y="230" width="230" height="130" as="geometry"/>
                </mxCell>
                <mxCell id="iXEABd4B_S0YfIm2wUHQ-9" value="primary shard1" style="rounded=0;whiteSpace=wrap;html=1;" parent="iXEABd4B_S0YfIm2wUHQ-1" vertex="1">
                    <mxGeometry x="60" y="266" width="190" height="40" as="geometry"/>
                </mxCell>
                <mxCell id="iXEABd4B_S0YfIm2wUHQ-10" value="replica shard2" style="rounded=0;whiteSpace=wrap;html=1;" parent="iXEABd4B_S0YfIm2wUHQ-1" vertex="1">
                    <mxGeometry x="60" y="310" width="190" height="40" as="geometry"/>
                </mxCell>
                <mxCell id="iXEABd4B_S0YfIm2wUHQ-11" value="&lt;font style=&quot;font-size: 14px&quot;&gt;master node 2&lt;/font&gt;" style="text;html=1;strokeColor=none;fillColor=none;align=center;verticalAlign=middle;whiteSpace=wrap;rounded=0;" parent="iXEABd4B_S0YfIm2wUHQ-1" vertex="1">
                    <mxGeometry x="447.5" y="240" width="115" height="20" as="geometry"/>
                </mxCell>
                <mxCell id="iXEABd4B_S0YfIm2wUHQ-12" value="node 1" style="text;html=1;strokeColor=none;fillColor=none;align=center;verticalAlign=middle;whiteSpace=wrap;rounded=0;" parent="iXEABd4B_S0YfIm2wUHQ-1" vertex="1">
                    <mxGeometry x="135" y="240" width="40" height="20" as="geometry"/>
                </mxCell>
                <mxCell id="iXEABd4B_S0YfIm2wUHQ-17" style="edgeStyle=orthogonalEdgeStyle;rounded=0;orthogonalLoop=1;jettySize=auto;html=1;exitX=0.5;exitY=1;exitDx=0;exitDy=0;entryX=0.5;entryY=0;entryDx=0;entryDy=0;" parent="iXEABd4B_S0YfIm2wUHQ-1" source="iXEABd4B_S0YfIm2wUHQ-16" target="iXEABd4B_S0YfIm2wUHQ-8" edge="1">
                    <mxGeometry relative="1" as="geometry"/>
                </mxCell>
                <mxCell id="iXEABd4B_S0YfIm2wUHQ-16" value="Client" style="ellipse;whiteSpace=wrap;html=1;aspect=fixed;" parent="iXEABd4B_S0YfIm2wUHQ-1" vertex="1">
                    <mxGeometry x="320" y="80" width="80" height="80" as="geometry"/>
                </mxCell>
                <mxCell id="iXEABd4B_S0YfIm2wUHQ-18" value="1. Client 发送数据到 node 1" style="text;html=1;strokeColor=none;fillColor=none;align=center;verticalAlign=middle;whiteSpace=wrap;rounded=0;" parent="iXEABd4B_S0YfIm2wUHQ-1" vertex="1">
                    <mxGeometry x="150" y="170" width="160" height="20" as="geometry"/>
                </mxCell>
                <mxCell id="iXEABd4B_S0YfIm2wUHQ-19" value="2. node 1 变为协调结点" style="text;html=1;strokeColor=none;fillColor=none;align=center;verticalAlign=middle;whiteSpace=wrap;rounded=0;" parent="iXEABd4B_S0YfIm2wUHQ-1" vertex="1">
                    <mxGeometry x="-2" y="200" width="140" height="20" as="geometry"/>
                </mxCell>
                <mxCell id="iXEABd4B_S0YfIm2wUHQ-20" value="3. node 1 hash 后该数据会存储到 node 2" style="text;html=1;strokeColor=none;fillColor=none;align=center;verticalAlign=middle;whiteSpace=wrap;rounded=0;" parent="iXEABd4B_S0YfIm2wUHQ-1" vertex="1">
                    <mxGeometry x="-20" y="220" width="265" height="20" as="geometry"/>
                </mxCell>
                <mxCell id="iXEABd4B_S0YfIm2wUHQ-22" value="" style="group" parent="iXEABd4B_S0YfIm2wUHQ-1" vertex="1" connectable="0">
                    <mxGeometry x="650" y="270" width="127" height="90" as="geometry"/>
                </mxCell>
                <mxCell id="iXEABd4B_S0YfIm2wUHQ-5" value="" style="rounded=1;whiteSpace=wrap;html=1;" parent="iXEABd4B_S0YfIm2wUHQ-22" vertex="1">
                    <mxGeometry width="127.00000000000001" height="90" as="geometry"/>
                </mxCell>
                <mxCell id="iXEABd4B_S0YfIm2wUHQ-6" value="&lt;span&gt;primary shard3&lt;/span&gt;" style="rounded=0;whiteSpace=wrap;html=1;" parent="iXEABd4B_S0YfIm2wUHQ-22" vertex="1">
                    <mxGeometry x="11.043478260869565" y="24.923076923076923" width="104.91304347826087" height="27.692307692307693" as="geometry"/>
                </mxCell>
                <mxCell id="iXEABd4B_S0YfIm2wUHQ-7" value="&lt;span&gt;replica shard1&lt;/span&gt;" style="rounded=0;whiteSpace=wrap;html=1;" parent="iXEABd4B_S0YfIm2wUHQ-22" vertex="1">
                    <mxGeometry x="11.043478260869565" y="55.38461538461539" width="104.91304347826087" height="27.692307692307693" as="geometry"/>
                </mxCell>
                <mxCell id="iXEABd4B_S0YfIm2wUHQ-13" value="node 3" style="text;html=1;strokeColor=none;fillColor=none;align=center;verticalAlign=middle;whiteSpace=wrap;rounded=0;" parent="iXEABd4B_S0YfIm2wUHQ-22" vertex="1">
                    <mxGeometry x="39.730000000000004" y="4" width="47.54" height="13.85" as="geometry"/>
                </mxCell>
                <mxCell id="iXEABd4B_S0YfIm2wUHQ-23" value="4. 转发请求到 node2" style="text;html=1;strokeColor=none;fillColor=none;align=center;verticalAlign=middle;whiteSpace=wrap;rounded=0;" parent="iXEABd4B_S0YfIm2wUHQ-1" vertex="1">
                    <mxGeometry x="270" y="240" width="120" height="20" as="geometry"/>
                </mxCell>
                <mxCell id="iXEABd4B_S0YfIm2wUHQ-24" value="5. node 2 将数据写到 primary shard 2 中" style="text;html=1;strokeColor=none;fillColor=none;align=center;verticalAlign=middle;whiteSpace=wrap;rounded=0;" parent="iXEABd4B_S0YfIm2wUHQ-1" vertex="1">
                    <mxGeometry x="333" y="263" width="220" height="20" as="geometry"/>
                </mxCell>
                <mxCell id="iXEABd4B_S0YfIm2wUHQ-32" style="edgeStyle=orthogonalEdgeStyle;rounded=0;orthogonalLoop=1;jettySize=auto;html=1;exitX=0.5;exitY=1;exitDx=0;exitDy=0;" parent="iXEABd4B_S0YfIm2wUHQ-1" source="iXEABd4B_S0YfIm2wUHQ-33" target="iXEABd4B_S0YfIm2wUHQ-31" edge="1">
                    <mxGeometry relative="1" as="geometry"/>
                </mxCell>
                <mxCell id="iXEABd4B_S0YfIm2wUHQ-26" value="Memory Buffer" style="rounded=0;whiteSpace=wrap;html=1;" parent="iXEABd4B_S0YfIm2wUHQ-1" vertex="1">
                    <mxGeometry x="370" y="400" width="110" height="33" as="geometry"/>
                </mxCell>
                <mxCell id="Dfly9wBQRtj-8VsdVsod-15" style="edgeStyle=orthogonalEdgeStyle;rounded=0;orthogonalLoop=1;jettySize=auto;html=1;exitX=1;exitY=0.5;exitDx=0;exitDy=0;" parent="iXEABd4B_S0YfIm2wUHQ-1" source="iXEABd4B_S0YfIm2wUHQ-27" target="gRTpquslr0_nQvBMVViK-1" edge="1">
                    <mxGeometry relative="1" as="geometry"/>
                </mxCell>
                <mxCell id="iXEABd4B_S0YfIm2wUHQ-27" value="Translog（磁盘）" style="rounded=0;whiteSpace=wrap;html=1;" parent="iXEABd4B_S0YfIm2wUHQ-1" vertex="1">
                    <mxGeometry x="324" y="640" width="110" height="34" as="geometry"/>
                </mxCell>
                <mxCell id="iXEABd4B_S0YfIm2wUHQ-33" value="每 1 秒或者当 Memory Buffer 满后，&lt;br&gt;会执行 refresh 刷到 OS Buffer" style="text;html=1;strokeColor=none;fillColor=none;align=center;verticalAlign=middle;whiteSpace=wrap;rounded=0;" parent="iXEABd4B_S0YfIm2wUHQ-1" vertex="1">
                    <mxGeometry x="65" y="463" width="360" height="20" as="geometry"/>
                </mxCell>
                <mxCell id="iXEABd4B_S0YfIm2wUHQ-34" style="edgeStyle=orthogonalEdgeStyle;rounded=0;orthogonalLoop=1;jettySize=auto;html=1;exitX=0.5;exitY=1;exitDx=0;exitDy=0;" parent="iXEABd4B_S0YfIm2wUHQ-1" source="iXEABd4B_S0YfIm2wUHQ-26" target="iXEABd4B_S0YfIm2wUHQ-33" edge="1">
                    <mxGeometry relative="1" as="geometry">
                        <mxPoint x="425" y="440" as="sourcePoint"/>
                        <mxPoint x="462.5" y="520" as="targetPoint"/>
                        <Array as="points">
                            <mxPoint x="425" y="443"/>
                            <mxPoint x="245" y="443"/>
                        </Array>
                    </mxGeometry>
                </mxCell>
                <mxCell id="iXEABd4B_S0YfIm2wUHQ-35" value="6. 写到 Memory Buffer 的同时&amp;nbsp; &amp;nbsp; &amp;nbsp; &amp;nbsp; &amp;nbsp;，&amp;nbsp; &amp;nbsp; &amp;nbsp;也会将 translog&amp;nbsp;写入到 OS Buffer" style="text;html=1;strokeColor=none;fillColor=none;align=center;verticalAlign=middle;whiteSpace=wrap;rounded=0;" parent="iXEABd4B_S0YfIm2wUHQ-1" vertex="1">
                    <mxGeometry x="297" y="372" width="442" height="20" as="geometry"/>
                </mxCell>
                <mxCell id="iXEABd4B_S0YfIm2wUHQ-37" value="segment (磁盘)" style="rounded=0;whiteSpace=wrap;html=1;" parent="iXEABd4B_S0YfIm2wUHQ-1" vertex="1">
                    <mxGeometry x="142.5" y="630" width="95" height="39" as="geometry"/>
                </mxCell>
                <mxCell id="iXEABd4B_S0YfIm2wUHQ-39" value="segment (磁盘)" style="rounded=0;whiteSpace=wrap;html=1;" parent="iXEABd4B_S0YfIm2wUHQ-1" vertex="1">
                    <mxGeometry x="30" y="630" width="95" height="41" as="geometry"/>
                </mxCell>
                <mxCell id="iXEABd4B_S0YfIm2wUHQ-40" value="每 30 分钟或者 translog 文件超过指定大小后，会 flush 一次，将 OS Buffer 中的数据写入到 segment&lt;br&gt;&lt;br&gt;" style="text;html=1;strokeColor=none;fillColor=none;align=center;verticalAlign=middle;whiteSpace=wrap;rounded=0;" parent="iXEABd4B_S0YfIm2wUHQ-1" vertex="1">
                    <mxGeometry x="32.5" y="578" width="270" height="20" as="geometry"/>
                </mxCell>
                <mxCell id="gRTpquslr0_nQvBMVViK-6" value="7. 返回响应给协调结点" style="text;html=1;strokeColor=none;fillColor=none;align=center;verticalAlign=middle;whiteSpace=wrap;rounded=0;" parent="iXEABd4B_S0YfIm2wUHQ-1" vertex="1">
                    <mxGeometry x="266.5" y="303" width="127" height="20" as="geometry"/>
                </mxCell>
                <mxCell id="gRTpquslr0_nQvBMVViK-8" value="8. 协调结点返回响应" style="text;html=1;strokeColor=none;fillColor=none;align=center;verticalAlign=middle;whiteSpace=wrap;rounded=0;" parent="iXEABd4B_S0YfIm2wUHQ-1" vertex="1">
                    <mxGeometry x="16" y="92" width="128" height="20" as="geometry"/>
                </mxCell>
                <mxCell id="Dfly9wBQRtj-8VsdVsod-6" value="每隔 5 分钟把 OS Buffer 中的 translog 写入到磁盘" style="text;html=1;strokeColor=none;fillColor=none;align=center;verticalAlign=middle;whiteSpace=wrap;rounded=0;" parent="iXEABd4B_S0YfIm2wUHQ-1" vertex="1">
                    <mxGeometry x="469.5" y="560" width="152" height="20" as="geometry"/>
                </mxCell>
                <mxCell id="Dfly9wBQRtj-8VsdVsod-12" value="写入步骤为：&lt;br&gt;1. 设置 commit point&lt;br&gt;2. 将 OS Buffer 中的数据 fsync 到 segment&lt;br&gt;3. 清空 translog" style="text;html=1;strokeColor=none;fillColor=none;align=center;verticalAlign=middle;whiteSpace=wrap;rounded=0;" parent="iXEABd4B_S0YfIm2wUHQ-1" vertex="1">
                    <mxGeometry x="130.5" y="589" width="491" height="20" as="geometry"/>
                </mxCell>
            </root>
        </mxGraphModel>
    </diagram>
    <diagram id="KUAQqhAz6jO1jgFG1Akq" name="ES删除流程">
        <mxGraphModel dx="1138" dy="680" grid="0" gridSize="10" guides="1" tooltips="1" connect="1" arrows="1" fold="1" page="1" pageScale="1" pageWidth="850" pageHeight="1100" math="0" shadow="0">
            <root>
                <mxCell id="-pefxzP37Lz-Pb7GwPz2-0"/>
                <mxCell id="-pefxzP37Lz-Pb7GwPz2-1" parent="-pefxzP37Lz-Pb7GwPz2-0"/>
                <mxCell id="-pefxzP37Lz-Pb7GwPz2-6" style="edgeStyle=orthogonalEdgeStyle;rounded=0;orthogonalLoop=1;jettySize=auto;html=1;exitX=0.5;exitY=0;exitDx=0;exitDy=0;entryX=0.5;entryY=0;entryDx=0;entryDy=0;curved=1;" edge="1" parent="-pefxzP37Lz-Pb7GwPz2-1" source="-pefxzP37Lz-Pb7GwPz2-2" target="-pefxzP37Lz-Pb7GwPz2-5">
                    <mxGeometry relative="1" as="geometry"/>
                </mxCell>
                <mxCell id="-pefxzP37Lz-Pb7GwPz2-2" value="" style="shape=cylinder;whiteSpace=wrap;html=1;boundedLbl=1;backgroundOutline=1;fillColor=#d5e8d4;strokeColor=#82b366;" vertex="1" parent="-pefxzP37Lz-Pb7GwPz2-1">
                    <mxGeometry x="190" y="100" width="60" height="80" as="geometry"/>
                </mxCell>
                <mxCell id="-pefxzP37Lz-Pb7GwPz2-7" style="edgeStyle=orthogonalEdgeStyle;curved=1;rounded=0;orthogonalLoop=1;jettySize=auto;html=1;exitX=0.5;exitY=0;exitDx=0;exitDy=0;entryX=0.5;entryY=0;entryDx=0;entryDy=0;" edge="1" parent="-pefxzP37Lz-Pb7GwPz2-1" source="-pefxzP37Lz-Pb7GwPz2-3" target="-pefxzP37Lz-Pb7GwPz2-5">
                    <mxGeometry relative="1" as="geometry"/>
                </mxCell>
                <mxCell id="-pefxzP37Lz-Pb7GwPz2-3" value="" style="shape=cylinder;whiteSpace=wrap;html=1;boundedLbl=1;backgroundOutline=1;fillColor=#d5e8d4;strokeColor=#82b366;" vertex="1" parent="-pefxzP37Lz-Pb7GwPz2-1">
                    <mxGeometry x="290" y="100" width="60" height="80" as="geometry"/>
                </mxCell>
                <mxCell id="-pefxzP37Lz-Pb7GwPz2-4" value="" style="shape=cylinder;whiteSpace=wrap;html=1;boundedLbl=1;backgroundOutline=1;fillColor=#d5e8d4;strokeColor=#82b366;" vertex="1" parent="-pefxzP37Lz-Pb7GwPz2-1">
                    <mxGeometry x="390" y="100" width="60" height="80" as="geometry"/>
                </mxCell>
                <mxCell id="-pefxzP37Lz-Pb7GwPz2-5" value="" style="shape=cylinder;whiteSpace=wrap;html=1;boundedLbl=1;backgroundOutline=1;fillColor=#f5f5f5;strokeColor=#666666;fontColor=#333333;" vertex="1" parent="-pefxzP37Lz-Pb7GwPz2-1">
                    <mxGeometry x="520" y="70" width="110" height="110" as="geometry"/>
                </mxCell>
                <mxCell id="-pefxzP37Lz-Pb7GwPz2-10" value="" style="shape=cylinder;whiteSpace=wrap;html=1;boundedLbl=1;backgroundOutline=1;fillColor=#f5f5f5;strokeColor=#666666;fontColor=#333333;" vertex="1" parent="-pefxzP37Lz-Pb7GwPz2-1">
                    <mxGeometry x="190" y="300" width="60" height="80" as="geometry"/>
                </mxCell>
                <mxCell id="-pefxzP37Lz-Pb7GwPz2-12" value="" style="shape=cylinder;whiteSpace=wrap;html=1;boundedLbl=1;backgroundOutline=1;fillColor=#f5f5f5;strokeColor=#666666;fontColor=#333333;" vertex="1" parent="-pefxzP37Lz-Pb7GwPz2-1">
                    <mxGeometry x="290" y="300" width="60" height="80" as="geometry"/>
                </mxCell>
                <mxCell id="-pefxzP37Lz-Pb7GwPz2-13" value="" style="shape=cylinder;whiteSpace=wrap;html=1;boundedLbl=1;backgroundOutline=1;fillColor=#f5f5f5;strokeColor=#666666;fontColor=#333333;" vertex="1" parent="-pefxzP37Lz-Pb7GwPz2-1">
                    <mxGeometry x="390" y="300" width="60" height="80" as="geometry"/>
                </mxCell>
                <mxCell id="-pefxzP37Lz-Pb7GwPz2-14" value="" style="shape=cylinder;whiteSpace=wrap;html=1;boundedLbl=1;backgroundOutline=1;fillColor=#d5e8d4;strokeColor=#82b366;" vertex="1" parent="-pefxzP37Lz-Pb7GwPz2-1">
                    <mxGeometry x="520" y="270" width="110" height="110" as="geometry"/>
                </mxCell>
                <mxCell id="-pefxzP37Lz-Pb7GwPz2-15" value="merge 后，会将小的 segment 删除" style="text;html=1;strokeColor=none;fillColor=none;align=center;verticalAlign=middle;whiteSpace=wrap;rounded=0;" vertex="1" parent="-pefxzP37Lz-Pb7GwPz2-1">
                    <mxGeometry x="270" y="230" width="230" height="20" as="geometry"/>
                </mxCell>
            </root>
        </mxGraphModel>
    </diagram>
</mxfile>